<?xml version="1.0" standalone="no"?>
<!DOCTYPE svg PUBLIC "-//W3C//DTD SVG 20010904//EN"
 "http://www.w3.org/TR/2001/REC-SVG-20010904/DTD/svg10.dtd">
<svg version="1.0" xmlns="http://www.w3.org/2000/svg"
 width="729.000000pt" height="729.000000pt" viewBox="0 0 729.000000 729.000000"
 preserveAspectRatio="xMidYMid meet">
<metadata>
Created by potrace 1.11, written by Peter Selinger 2001-2013
</metadata>
<g transform="translate(0.000000,729.000000) scale(0.100000,-0.100000)"
fill="#000000" stroke="none">
<path d="M3409 7246 c-2 -2 -44 -7 -94 -10 -90 -7 -127 -12 -155 -24 -8 -3
-22 -6 -30 -7 -113 -15 -190 -27 -235 -39 -5 -1 -55 -12 -110 -25 -55 -12
-107 -25 -115 -28 -8 -3 -20 -7 -25 -8 -14 -3 -207 -63 -275 -86 -168 -55
-456 -187 -603 -278 -37 -22 -69 -41 -72 -41 -17 0 -432 -306 -486 -359 -9 -9
-65 -61 -124 -116 -122 -112 -255 -248 -310 -315 -21 -25 -41 -47 -45 -50 -16
-12 -150 -195 -222 -304 -86 -132 -206 -366 -291 -571 -29 -70 -85 -226 -92
-258 -2 -12 -14 -53 -25 -92 -11 -38 -22 -79 -24 -90 -2 -11 -9 -38 -14 -60
-6 -22 -14 -60 -17 -85 -4 -24 -8 -47 -10 -50 -1 -3 -6 -25 -9 -50 -4 -25 -10
-72 -15 -105 -10 -68 -13 -316 -4 -357 3 -16 9 -28 13 -28 8 0 33 98 46 175
14 92 22 70 20 -60 -1 -77 0 -152 2 -167 4 -29 22 -39 22 -14 0 8 4 16 9 18 8
3 20 58 21 97 0 8 2 12 6 9 3 -3 6 -58 6 -122 2 -177 21 -145 38 62 0 2 4 1 9
-2 9 -6 48 139 57 213 2 20 6 43 9 51 2 8 7 33 11 55 3 22 14 81 25 130 11 50
23 103 26 119 2 16 13 54 24 85 16 48 18 31 3 -21 -4 -12 0 -18 11 -18 9 0 13
-4 10 -10 -3 -5 -2 -10 4 -10 6 0 20 18 31 40 11 22 22 40 24 40 4 0 7 -30 5
-60 -5 -73 1 -174 10 -183 11 -11 53 73 66 131 9 41 44 130 45 113 0 -8 46 78
103 190 57 112 125 240 153 284 97 155 405 563 499 661 17 17 56 59 88 93 31
35 57 61 57 58 0 -4 -20 -35 -45 -70 -48 -70 -69 -113 -56 -121 7 -4 155 108
197 149 14 13 116 97 204 168 16 13 153 115 205 152 149 108 446 268 620 335
202 78 266 99 422 134 270 62 432 80 703 79 211 -1 281 -6 475 -38 141 -22
157 -25 165 -30 4 -2 22 -7 41 -10 216 -38 609 -199 864 -354 51 -31 213 -138
228 -151 7 -6 37 -29 67 -52 30 -24 60 -47 66 -53 7 -5 43 -37 80 -70 81 -70
209 -200 268 -269 22 -27 46 -54 51 -60 49 -56 95 -116 95 -124 0 -6 4 -12 8
-14 11 -4 108 -145 167 -243 97 -161 230 -451 275 -600 6 -22 14 -47 17 -55 3
-8 8 -24 10 -35 2 -11 7 -31 12 -45 5 -14 14 -45 19 -70 6 -25 14 -58 18 -75
16 -66 31 -149 39 -208 4 -27 8 -56 10 -65 19 -102 26 -488 12 -637 -5 -44
-15 -123 -23 -175 -14 -91 -17 -106 -30 -175 -20 -108 -104 -390 -139 -470 -8
-16 -26 -61 -41 -100 -25 -63 -146 -310 -177 -360 -90 -145 -189 -290 -257
-375 -88 -110 -340 -368 -425 -436 -27 -21 -52 -42 -55 -45 -14 -17 -210 -156
-294 -209 -202 -127 -552 -289 -726 -335 -99 -27 -219 -58 -235 -61 -11 -2
-31 -6 -45 -9 -14 -2 -41 -7 -60 -10 -19 -3 -42 -8 -50 -10 -8 -2 -35 -7 -60
-10 -25 -3 -72 -10 -105 -15 -33 -4 -67 -8 -75 -8 -8 -1 -51 -4 -95 -8 -147
-14 -511 -8 -645 10 -14 2 -46 7 -70 10 -25 3 -56 8 -70 11 -14 3 -52 10 -85
15 -116 21 -326 81 -480 137 -85 31 -328 139 -370 165 -16 10 -34 18 -40 18
-31 0 242 -138 385 -195 52 -20 104 -41 115 -46 63 -27 385 -114 457 -124 15
-2 35 -6 45 -9 19 -5 56 -11 138 -21 28 -4 61 -8 75 -10 150 -23 571 -23 738
0 51 7 103 14 152 20 25 3 61 10 80 15 19 5 49 11 65 13 17 3 75 17 130 31
523 135 969 374 1365 732 84 77 258 253 277 282 24 34 35 26 14 -10 -25 -45
-77 -103 -206 -233 -115 -114 -200 -190 -285 -255 -18 -14 -38 -30 -45 -36
-50 -50 -396 -265 -483 -301 -20 -8 -59 -25 -87 -37 -27 -13 -84 -35 -125 -51
-41 -15 -84 -31 -95 -36 -24 -11 -260 -77 -295 -83 -14 -3 -25 -5 -25 -6 0 -3
-61 -15 -175 -34 -141 -25 -218 -33 -355 -41 -49 -3 -144 -8 -210 -11 -175
-10 -373 -6 -450 9 -21 5 -102 17 -149 23 -15 2 -36 6 -46 9 -10 3 -31 8 -46
10 -105 15 -462 123 -536 161 -15 8 -31 15 -35 15 -30 2 -404 188 -434 215 -8
8 -19 14 -23 14 -13 0 -318 208 -336 229 -3 3 -25 22 -50 41 -119 91 -406 378
-504 503 -79 102 -105 137 -131 179 -17 27 -34 48 -38 48 -12 0 151 -232 183
-260 3 -3 44 -50 90 -105 120 -140 288 -305 420 -411 285 -228 599 -404 943
-529 42 -15 77 -33 77 -40 0 -12 218 -80 227 -71 4 4 -54 24 -93 32 -43 8
-125 36 -121 41 3 3 21 0 39 -6 40 -13 173 -50 208 -57 13 -3 27 -8 30 -11 3
-3 -5 -3 -17 0 -13 3 -26 0 -30 -6 -3 -7 -3 -9 1 -5 4 3 21 2 38 -3 17 -5 48
-11 68 -14 20 -3 52 -10 70 -15 22 -6 38 -6 46 1 8 7 13 6 16 -1 2 -7 21 -14
43 -16 22 -3 48 -6 58 -8 9 -2 15 -1 12 3 -2 4 2 8 10 8 8 0 12 -4 9 -8 -9
-15 31 -15 49 0 14 12 18 12 15 2 -2 -7 3 -16 10 -18 6 -3 12 1 12 9 0 10 2
10 8 1 5 -8 41 -15 88 -19 102 -7 417 -8 469 0 26 3 35 2 25 -4 -34 -19 -390
-29 -595 -17 -87 5 -131 10 -280 32 -304 44 -741 210 -1056 401 -99 59 -290
188 -330 222 -13 11 -65 54 -115 95 -213 176 -460 450 -621 688 -153 228 -293
505 -368 732 -22 65 -40 79 -20 15 23 -73 36 -112 51 -145 8 -17 14 -33 14
-36 0 -2 9 -25 20 -51 12 -25 20 -47 19 -48 -2 -4 155 -313 187 -368 135 -229
313 -458 522 -667 45 -46 79 -83 74 -83 -8 0 -203 198 -262 266 -47 54 -147
179 -179 224 -54 77 -167 245 -174 260 -4 8 -17 31 -29 50 -11 19 -63 118
-115 220 -117 231 -141 258 -84 98 11 -32 18 -58 15 -58 -6 0 126 -250 146
-275 4 -5 20 -32 36 -60 24 -44 125 -203 146 -230 5 -5 27 -35 51 -66 82 -109
92 -122 127 -163 85 -99 195 -211 330 -336 52 -48 231 -191 247 -197 8 -3 12
-12 8 -20 -3 -10 -1 -13 9 -10 16 6 81 -38 81 -55 0 -6 6 -13 14 -16 8 -3 11
0 7 7 -4 6 10 0 31 -15 21 -14 37 -30 35 -35 -1 -6 6 -9 15 -7 11 2 17 -2 15
-11 -2 -9 3 -11 13 -7 11 4 14 2 9 -6 -5 -8 -2 -9 10 -5 11 4 15 3 11 -4 -4
-6 1 -9 11 -7 12 2 18 -2 16 -11 -2 -8 3 -11 13 -8 9 4 15 1 15 -9 0 -10 6
-14 15 -10 8 3 15 1 15 -5 0 -6 5 -7 12 -3 7 5 8 3 3 -6 -6 -10 -4 -12 9 -7
11 5 15 3 10 -5 -5 -8 -2 -9 10 -5 11 5 15 3 10 -5 -5 -8 -2 -9 9 -5 9 3 16 3
16 -1 -3 -19 2 -25 11 -12 8 13 10 12 10 -3 0 -10 4 -16 9 -12 5 3 13 0 16 -6
4 -5 14 -8 22 -5 8 3 11 1 8 -4 -6 -9 8 -14 28 -11 4 0 7 -4 7 -10 0 -5 5 -7
10 -4 6 3 10 1 10 -4 0 -6 5 -11 10 -11 6 0 39 -13 73 -29 212 -98 546 -193
827 -236 71 -10 254 -35 262 -35 4 0 8 -4 8 -9 0 -5 -12 -8 -27 -6 -16 2 -57
7 -93 10 -36 3 -76 8 -90 11 -14 3 -43 7 -65 10 -81 10 -215 39 -350 74 -437
115 -837 313 -1200 593 -117 91 -145 117 -139 132 3 7 -2 15 -12 19 -12 5 -15
2 -10 -9 3 -10 2 -13 -4 -10 -6 4 -9 14 -8 22 2 9 -3 18 -11 21 -9 3 -11 0 -6
-9 5 -8 -4 -3 -18 10 -14 13 -25 29 -24 35 1 6 -4 10 -10 9 -7 -2 -12 3 -10
10 1 6 -4 11 -10 10 -7 -2 -12 3 -10 10 1 7 -6 11 -18 9 -16 -2 -17 -1 -5 7
14 10 7 15 -13 12 -5 -1 -5 4 -1 10 5 9 2 10 -9 6 -12 -4 -14 -2 -10 10 4 10
2 14 -4 10 -6 -4 -16 0 -23 8 -7 8 -10 15 -6 15 3 0 -4 11 -16 25 -11 13 -26
22 -31 18 -6 -3 -7 -1 -3 5 4 7 1 12 -8 12 -9 0 -15 4 -13 8 4 14 -56 82 -67
75 -6 -3 -8 -3 -4 2 6 6 -17 39 -98 138 -101 123 -256 365 -288 450 -10 26
-21 47 -25 47 -4 0 -17 19 -28 43 -47 98 -101 214 -112 241 -6 16 -14 26 -18
23 -3 -4 -1 -12 4 -19 6 -7 14 -24 18 -38 13 -42 117 -255 126 -258 5 -2 9 -9
9 -16 0 -13 120 -218 170 -290 16 -25 30 -50 30 -57 0 -10 111 -172 129 -189
24 -21 100 -121 81 -105 -14 11 -30 27 -37 35 -19 25 -27 3 -9 -27 29 -47 -58
54 -152 177 -81 106 -179 248 -222 324 -9 17 -37 65 -60 106 -57 100 -151 298
-196 413 -20 50 -40 97 -46 102 -6 7 -6 2 0 -15 6 -14 20 -52 33 -85 12 -33
33 -84 46 -113 12 -29 23 -55 23 -58 0 -3 29 -63 64 -134 207 -415 472 -762
818 -1073 81 -72 300 -246 394 -312 202 -142 462 -282 709 -382 61 -25 258
-92 285 -98 8 -2 76 -19 150 -38 74 -19 190 -43 258 -53 67 -10 122 -21 122
-25 0 -5 -56 1 -160 16 -65 10 -275 55 -350 76 -41 11 -82 22 -90 24 -8 2 -15
4 -15 5 0 1 -7 3 -15 5 -92 18 -576 216 -600 245 -6 8 -44 22 -46 18 -1 -2
-10 4 -20 12 -11 9 -39 26 -64 40 -126 67 -384 246 -519 359 -173 146 -414
396 -526 546 -17 22 -38 49 -48 59 -9 11 -17 23 -17 26 0 4 -11 20 -25 36 -14
16 -25 32 -25 36 0 4 -6 13 -13 20 -11 12 -89 130 -112 169 -5 10 -31 54 -57
98 -42 74 -120 230 -163 326 -9 22 -23 54 -31 70 -7 17 -23 57 -34 90 -12 33
-26 69 -30 80 -36 79 -130 430 -146 545 -2 19 -7 46 -10 60 -3 14 -8 43 -10
65 -7 61 -25 196 -31 235 -3 19 -6 40 -6 47 0 7 -4 10 -8 7 -11 -6 -3 -225 10
-301 5 -32 13 -76 16 -98 4 -32 38 -195 49 -240 1 -5 6 -26 10 -45 13 -60 56
-201 98 -320 131 -375 319 -711 577 -1035 107 -134 343 -377 466 -479 44 -37
87 -73 95 -80 38 -33 250 -184 312 -221 244 -149 505 -277 683 -336 33 -11 69
-24 80 -29 70 -29 294 -92 406 -114 8 -2 25 -6 39 -9 14 -4 43 -9 64 -12 21
-3 48 -7 60 -10 34 -7 152 -24 211 -30 226 -23 616 -23 755 -1 14 3 52 7 85
10 33 3 70 8 81 10 25 5 71 13 129 21 156 23 531 135 730 218 91 37 328 154
416 204 153 88 352 226 479 332 30 25 68 57 85 71 56 47 312 305 366 370 30
36 56 67 60 70 36 32 253 342 300 430 13 25 27 47 30 50 27 20 260 534 275
605 1 6 16 51 32 102 28 84 84 297 96 368 3 17 8 39 10 50 11 61 21 122 31
203 4 34 11 62 15 62 4 0 6 -10 5 -22 -10 -90 -16 -136 -21 -158 -8 -42 -11
-63 -19 -110 -4 -25 -9 -52 -11 -60 -1 -8 -10 -48 -19 -89 -45 -208 -125 -459
-201 -629 -13 -29 -24 -55 -24 -58 0 -24 -188 -372 -250 -464 -38 -57 -63
-103 -52 -96 16 10 117 165 177 271 78 139 164 320 207 435 12 30 25 66 31 80
6 14 11 30 13 35 2 6 17 50 33 98 27 79 93 331 105 397 5 32 25 138 30 167 3
12 7 46 10 75 4 29 8 69 11 88 29 214 24 674 -9 885 -3 17 -7 48 -10 70 -5 40
-40 218 -56 285 -5 19 -11 45 -14 58 -12 54 -84 288 -98 322 -24 56 -92 227
-144 360 -94 242 -264 526 -470 785 -88 110 -311 341 -393 405 -24 19 -50 41
-57 49 -71 67 -415 300 -436 293 -4 -1 -8 3 -8 9 0 5 -4 8 -9 5 -5 -4 -11 -2
-13 2 -10 26 -456 223 -730 323 -80 29 -280 87 -326 95 -15 3 -40 9 -57 14
-34 10 -188 37 -255 45 -102 12 -136 17 -160 22 -29 6 -605 14 -611 9z m-1029
-280 c0 -2 -7 -7 -16 -10 -8 -3 -12 -2 -9 4 6 10 25 14 25 6z m-54 -21 c-11
-8 -25 -15 -30 -15 -6 1 0 7 14 15 32 19 40 18 16 0z m-46 -13 c0 -4 -21 -17
-47 -27 -109 -44 -315 -151 -453 -235 -195 -118 -390 -260 -539 -395 -77 -69
-241 -234 -269 -269 -12 -16 -24 -27 -26 -25 -11 11 157 190 274 294 148 131
361 288 535 394 100 61 147 86 295 159 91 45 179 88 195 96 37 18 35 18 35 8z
m-395 -312 c-3 -5 -12 -10 -18 -10 -7 0 -6 4 3 10 19 12 23 12 15 0z m-36 -23
c-2 -2 -32 -21 -67 -41 -62 -38 -258 -178 -316 -226 -94 -79 -230 -206 -340
-317 -69 -70 -126 -123 -126 -117 0 5 53 63 118 129 107 109 151 151 252 240
64 57 244 192 335 252 130 85 140 91 144 87 2 -2 2 -5 0 -7z m-868 -730 c-10
-9 -11 -8 -5 6 3 10 9 15 12 12 3 -3 0 -11 -7 -18z m507 -77 c-7 -10 -14 -17
-17 -15 -4 4 18 35 25 35 2 0 -1 -9 -8 -20z m-846 -357 c-19 -28 -116 -214
-146 -283 -8 -19 -28 -57 -44 -85 -35 -61 -142 -310 -142 -329 0 -8 -4 -17 -9
-20 -5 -3 -12 -22 -15 -41 -4 -19 -11 -35 -16 -35 -8 0 15 80 37 130 3 8 7 17
7 20 2 6 25 66 42 105 7 17 25 59 40 95 68 167 237 470 261 470 3 0 -4 -12
-15 -27z m-240 -534 c-46 -114 -92 -239 -92 -249 0 -16 -20 -63 -25 -58 -3 3
9 45 26 94 42 124 111 295 116 290 2 -2 -9 -37 -25 -77z m-117 -329 c-3 -5 -8
-18 -10 -27 -2 -10 -11 -46 -19 -80 -15 -60 -51 -248 -62 -323 -10 -69 -26
-140 -31 -140 -5 0 1 52 28 215 5 33 12 73 14 89 2 15 7 36 10 46 3 10 7 27 9
37 19 92 50 193 61 193 4 0 3 -4 0 -10z m-188 -480 c-1 -11 -5 -20 -9 -20 -10
0 -10 4 -2 24 8 22 13 20 11 -4z m77 -127 c-1 -16 -2 -31 -3 -34 -1 -3 -8 -6
-17 -6 -14 0 -14 2 2 14 13 10 14 13 3 13 -12 0 -12 2 1 10 13 9 13 10 0 10
-13 0 -13 1 0 10 8 5 15 10 16 10 0 0 0 -12 -2 -27z m-12 -60 c-6 -2 -10 -9
-6 -14 3 -5 0 -9 -5 -9 -12 0 -14 13 -4 23 3 4 11 7 17 6 6 0 5 -3 -2 -6z
m7108 -227 c0 -3 -4 -8 -10 -11 -5 -3 -10 -1 -10 4 0 6 5 11 10 11 6 0 10 -2
10 -4z m-3 -71 c0 -8 -4 -12 -9 -9 -4 3 -8 9 -8 15 0 5 4 9 8 9 5 0 9 -7 9
-15z m-4 -44 c2 -10 1 -25 -4 -32 -6 -10 -9 -4 -9 19 0 36 5 42 13 13z m-1
-110 c-2 -28 -7 -51 -10 -51 -4 0 -5 25 -4 55 2 30 7 53 10 51 4 -2 5 -27 4
-55z m-7 -93 c-2 -18 -4 -48 -4 -65 -1 -18 -5 -33 -10 -33 -5 0 -8 11 -5 25 2
14 5 43 7 65 1 22 5 40 9 40 3 0 5 -15 3 -32z m-1125 -1722 c0 -2 -8 -10 -17
-17 -16 -13 -17 -12 -4 4 13 16 21 21 21 13z m-4649 -521 c22 -19 36 -35 33
-35 -4 0 -24 16 -45 35 -22 19 -36 35 -33 35 4 0 24 -16 45 -35z m4600 -87
c-122 -115 -344 -287 -468 -363 -160 -99 -235 -142 -343 -197 -176 -90 -532
-229 -548 -213 -3 2 4 7 14 11 10 3 37 13 59 21 22 8 41 14 43 13 4 -2 148 55
252 100 105 46 278 136 358 187 29 18 55 33 58 33 3 0 67 41 142 91 181 121
300 214 447 351 27 25 52 44 55 41 3 -3 -29 -36 -69 -75z m-3107 -557 c3 -4
-6 -6 -19 -3 -14 2 -25 6 -25 8 0 8 39 4 44 -5z m66 -11 c11 -8 7 -9 -15 -4
-37 8 -45 14 -19 14 10 0 26 -5 34 -10z m45 -18 c-3 -3 -11 0 -18 7 -9 10 -8
11 6 5 10 -3 15 -9 12 -12z m882 -48 c-3 -3 -12 -4 -19 -1 -8 3 -5 6 6 6 11 1
17 -2 13 -5z m742 -148 c-3 -3 -67 -21 -144 -41 -77 -20 -148 -39 -157 -41
-10 -3 -18 0 -18 7 0 7 3 10 6 7 5 -6 235 51 284 70 23 9 39 8 29 -2z m-344
-86 c-11 -5 -27 -9 -35 -9 -9 0 -8 4 5 9 11 5 27 9 35 9 9 0 8 -4 -5 -9z m-65
-10 c-8 -5 -24 -9 -35 -9 -16 1 -16 2 5 9 35 11 48 11 30 0z m-126 -18 c2 -4
-5 -9 -17 -9 -17 -2 -19 0 -7 7 18 12 18 12 24 2z m36 4 c0 -3 -4 -8 -10 -11
-5 -3 -10 -1 -10 4 0 6 5 11 10 11 6 0 10 -2 10 -4z m-880 -18 c22 0 40 -4 40
-8 0 -4 -10 -6 -22 -5 -13 1 -35 3 -50 4 -16 0 -28 6 -28 12 0 5 5 7 10 4 6
-3 28 -7 50 -7z m797 6 c-3 -3 -12 -4 -19 -1 -8 3 -5 6 6 6 11 1 17 -2 13 -5z
m-117 -14 c0 -5 -4 -10 -10 -10 -5 0 -10 5 -10 10 0 6 5 10 10 10 6 0 10 -4
10 -10z m77 4 c-3 -3 -12 -4 -19 -1 -8 3 -5 6 6 6 11 1 17 -2 13 -5z m-597
-12 c0 -4 -19 -6 -42 -4 -71 5 -77 10 -15 11 31 0 57 -2 57 -7z m56 -10 c-16
-2 -32 0 -37 5 -5 5 7 7 29 4 34 -5 35 -6 8 -9z m239 8 c-3 -5 -16 -10 -28 -9
-20 1 -20 2 3 9 14 4 26 8 28 9 2 1 0 -3 -3 -9z m39 2 c3 -5 -1 -9 -9 -9 -8 0
-12 4 -9 9 3 4 7 8 9 8 2 0 6 -4 9 -8z m76 2 c0 -8 -19 -13 -24 -6 -3 5 1 9 9
9 8 0 15 -2 15 -3z m43 -1 c-7 -2 -19 -2 -25 0 -7 3 -2 5 12 5 14 0 19 -2 13
-5z m-276 -9 c-3 -3 -12 -4 -19 -1 -8 3 -5 6 6 6 11 1 17 -2 13 -5z"/>
<path d="M269 3608 c-4 -10 -4 -77 0 -72 6 5 10 74 4 74 -2 0 -3 -1 -4 -2z"/>
<path d="M268 3478 c5 -71 10 -77 11 -15 0 31 -2 57 -7 57 -4 0 -6 -19 -4 -42z"/>
<path d="M274 3335 c4 -38 9 -88 13 -110 10 -69 11 -79 12 -102 1 -13 6 -23
12 -23 5 0 8 4 5 8 -3 4 -7 26 -10 48 -3 21 -8 57 -11 79 -3 22 -7 66 -9 98
-2 32 -7 61 -11 65 -4 4 -4 -24 -1 -63z"/>
<path d="M312 3070 c0 -14 2 -19 5 -12 2 6 2 18 0 25 -3 6 -5 1 -5 -13z"/>
<path d="M313 3027 c3 -8 13 -55 23 -105 9 -51 21 -92 25 -92 4 0 3 15 -2 33
-12 41 -34 160 -31 170 1 4 -3 7 -9 7 -6 0 -9 -6 -6 -13z"/>
<path d="M360 2808 c0 -9 5 -20 10 -23 13 -8 13 5 0 25 -8 13 -10 13 -10 -2z"/>
<path d="M373 2758 c2 -7 12 -39 21 -72 10 -32 19 -56 21 -54 6 5 -34 138 -42
138 -3 0 -3 -6 0 -12z"/>
<path d="M431 2563 c11 -32 22 -63 23 -70 1 -7 6 -16 10 -20 9 -9 8 -1 -19 84
-11 35 -23 63 -27 63 -4 0 2 -26 13 -57z"/>
<path d="M332 2579 c6 -16 12 -28 14 -26 5 5 -13 57 -20 57 -3 0 0 -14 6 -31z"/>
<path d="M340 2530 c0 -5 5 -10 10 -10 6 0 10 5 10 10 0 6 -4 10 -10 10 -5 0
-10 -4 -10 -10z"/>
<path d="M471 2454 c-1 -7 8 -31 19 -55 11 -24 19 -37 19 -29 -1 19 -37 99
-38 84z"/>
<path d="M960 1786 c0 -8 67 -104 80 -116 3 -3 34 -41 70 -85 137 -172 320
-353 500 -497 271 -216 709 -452 990 -533 50 -15 13 4 -70 35 -188 70 -477
207 -570 270 -14 9 -88 59 -165 110 -77 52 -145 99 -151 105 -6 5 -26 21 -44
35 -51 39 -181 153 -234 206 -108 107 -203 215 -297 334 -28 36 -56 72 -62 80
-7 8 -20 26 -30 40 -9 13 -17 21 -17 16z"/>
<path d="M6541 1425 c-13 -19 -32 -45 -43 -57 -11 -13 -36 -43 -56 -68 -53
-65 -306 -318 -381 -381 -36 -30 -73 -61 -82 -69 -25 -21 -36 -30 -104 -80
-33 -25 -61 -48 -63 -52 -2 -5 -10 -8 -17 -8 -7 0 -15 -4 -17 -8 -4 -12 -185
-128 -308 -198 -175 -100 -488 -244 -529 -244 -6 0 -11 -5 -11 -11 0 -5 3 -8
8 -6 4 3 39 17 77 32 73 28 87 35 245 108 244 112 570 323 775 501 120 105
146 129 234 216 92 92 232 250 279 315 4 6 13 18 21 28 7 9 10 17 5 17 -5 0
-20 -16 -33 -35z"/>
<path d="M1360 1126 c0 -2 7 -9 15 -16 9 -7 15 -8 15 -2 0 5 -7 12 -15 16 -8
3 -15 4 -15 2z"/>
<path d="M1476 1024 c17 -16 46 -40 64 -54 19 -14 56 -42 83 -63 27 -21 51
-37 54 -34 2 3 -16 19 -42 37 -25 17 -71 53 -103 79 -66 54 -102 77 -56 35z"/>
<path d="M1724 835 c16 -14 34 -25 39 -25 6 0 -4 11 -23 25 -44 32 -53 32 -16
0z"/>
<path d="M1837 759 c7 -7 15 -10 18 -7 3 3 -2 9 -12 12 -14 6 -15 5 -6 -5z"/>
<path d="M4828 221 c-43 -14 -78 -29 -78 -33 0 -8 151 41 165 53 13 13 2 10
-87 -20z"/>
<path d="M4593 151 c-78 -20 -145 -40 -149 -44 -5 -4 -2 -6 6 -3 8 3 74 19
145 37 72 17 134 35 140 40 5 5 7 9 5 8 -3 -1 -69 -18 -147 -38z"/>
<path d="M4380 100 c-12 -7 -10 -9 8 -7 12 0 22 5 22 9 0 11 -12 10 -30 -2z"/>
<path d="M4303 89 c-12 -4 -40 -9 -62 -10 -22 -2 -38 -6 -36 -9 3 -4 30 -3 62
2 73 11 80 13 68 20 -6 3 -20 2 -32 -3z"/>
<path d="M4120 60 c-34 -7 -34 -7 -5 -8 17 0 41 4 55 8 33 11 0 11 -50 0z"/>
</g>
</svg>
