<?xml version="1.0" encoding="utf-8"?>
<!-- Generator: Adobe Illustrator 21.1.0, SVG Export Plug-In . SVG Version: 6.00 Build 0)  -->
<svg version="1.1" id="Layer_1" xmlns="http://www.w3.org/2000/svg" xmlns:xlink="http://www.w3.org/1999/xlink" x="0px" y="0px"
	 viewBox="0 0 618.9 594.5" style="enable-background:new 0 0 618.9 594.5;" xml:space="preserve">
<style type="text/css">
	.st0{clip-path:url(#SVGID_2_);}
</style>
<g id="Layer_2">
</g>
<g>
	<defs>
		<path id="SVGID_1_" d="M66.5,208.5l-21.3,7.3c0,0-37.3,18-30-40c-6,0-33.3-32,4.7-48.7c8.7-18.7,42.7-34,64.7-32
			c0-24,15.3-58.7,31.3-57.3c-12.7-16,6.7-22,6.7-22h17.3c0,0,19.3-19.3,29.3-15.3s42,31.3,50,26.7s42-8,36.7,32.7
			c-5.3,40.7,20.7,54,20.7,54s10.7,22.7-10.7,36.7s13.3,10.7,13.3,10.7s11.3-18.7,8.7-25.3c-2.7-6.7-26-29.3,12.7-17.3
			c31.3-3.3,47.3-4,85.3,4.7c4-14,22-11.3,20.7-3.3c-1.3,8,1.3-24,12.7-22.7c11.3,1.3,15.3-2.7,15.3-2.7s9.3-19.3,28-17.3
			c18.7,2,28.7,32.7,28.7,48.7s16,36.7,16,36.7s32,12,8,36.7c0,0-3.3,23.9-24.7,19.3c-21.3-4.6-26.7-10-33.3-17.3
			c-6.7-7.3-13.3,6-13.3,6s-47.3,17.3-54-49.3c3.3-20.7-50.7-26.7-62-18.7s-8.7,50.7,7.3,49.3s28.7-12,44,11.3
			c15.3,23.3-11.3,48.8-11.3,48.8s26,23.8,1.3,56.5c12,23.3-5.3,36.7-5.3,36.7s-1.3,46.7-33.3,8c-9.3-8.7-10-21.3-10-21.3
			s-46.7-11.3-12.7-64c9.3-15.8-14-20-54-12.7c4,8.7,5.1,11.3,8.2,14c3.1,2.7,19.1,9.3,22.4,30c3.3,20.7-2,47.3-34.7,54.7
			s-47.3-45.3-47.3-45.3s-31.3,8-54-2s18.7-74.7,18.7-74.7s-13.3-5.3-8-31.3c-6.7,24-1.3,27.3-10.7,34c-9.3,6.7-12,17.7-16,17.5
			c-4-0.2-24-4.8-24.7-8.2c0,0-46,14-52,2c0,0-12-0.7-12,9.3c0,10,10,38,10,38s-13.3,32.7,8.7,40c22,7.3,2.7,40,2.7,40
			s24-11.3,48,8.7c8,6,17.3,42,17.3,42s36.7-11.3,39.3,13.3c2.7,24.7,5.3,35.3,0,52c-5.3,16.7-7.3,22-8.7,36
			c-1.3,14,22.7-20.7,22.7-20.7s28.7-12.7,44.7-2.7c22-3.3,25.3,2.7,25.3,2.7s25.3-34.7,40.7-20c20,0,49.3-47.3,49.3-47.3
			s3.3-27.3,42-41.3c0,0,11.3-38,5.3-46c8.7-13.3,23.3-31.3,23.3-31.3s12.7-30.7,44.7-48s-36.7-7.3-36.7-7.3s22-24.7,10.7-23.3
			c-11.3,1.3-31.3,2.7-26-6c5.3-8.7,29.3-9.3,29.3-9.3s41.3-5.7,43.7,27.5c2.3,33.2,43.9,47.2,43.9,47.2s89.1,55.3-3.6,111.3
			s7.3,28,7.3,28s34.7-11.3,49.3-4.7c14.7,6.7,32,12,40.7,44.7c8.7,32.7-37.3,60.7-41.3,57.3s-20.7,6-56.7-27.3
			c0.7,16.7-39.7,27.6-39.7,27.6s-13,40.4-91.7,15.1c0,0-34.7-16.7-49.3-44c-14.7-27.3-57.3,14.7-57.3,14.7s-16,28.7-13.3,52.7
			c2.7,24-55.3,23.3-55.3,23.3s-53.3-16.7-63.3-45.3c-10-28.7-20.7-42.7-20.7-42.7l-52,6c0,0-66-2-44-61.3s3.3-84.7,3.3-84.7
			s-24-22.7-14-53.3S9.1,262.5,9.1,262.5s-20.7-26,60.7-48.7s-4.7-9.3-4.7-9.3L66.5,208.5z"/>
	</defs>
	<clipPath id="SVGID_2_">
		<use xlink:href="#SVGID_1_"  style="overflow:visible;"/>
	</clipPath>
	<g id="Layer_1_1_" class="st0">
		
			<image style="overflow:visible;enable-background:new    ;" width="960" height="711" xlink:href="whole ink.jpg"  transform="matrix(1 0 0 1 0.1239 -106.7884)">
		</image>
	</g>
</g>
</svg>
